#!OML:ASF H:\Terrain\Patient Classification 1\Walking\steve\steve.ASF
:FULLY-SPECIFIED
:DEGREES
152
root 6.15971 15.9353 -21.0973 5.01517 -1.75355 0.279702
lowerback 0.586065 1.75072 3.58067
upperback -1.67946 2.42934 2.02222
thorax -1.99287 1.17281 0.016654
lowerneck -12.2038 -0.281433 -1.59013
upperneck 19.5007 0.254473 -1.44059
head 8.05024 -0.134204 -0.185524
rclavicle 1.87106e-014 -3.97569e-015
rhumerus -36.1583 -28.0115 -72.0581
rradius 17.0116
rwrist 19.6216
rhand -19.9936 -33.9136
rfingers 7.12502
rthumb 6.34596 -63.7985
lclavicle 1.87106e-014 -3.97569e-015
lhumerus -27.1347 7.04974 87.5983
lradius 24.9597
lwrist 9.90599
lhand -22.1042 -12.9012
lfingers 7.12502
lthumb 4.30811 17.035
rfemur -26.176 4.64402 23.5319
rtibia 36.0782
rfoot -12.5128 10.712
rtoes -0.072015
lfemur -16.0127 7.18819 -20.2746
ltibia 65.704
lfoot 0.911416 7.70254
ltoes -0.447432
153
root 6.14905 15.9479 -20.954 4.95297 -1.77397 0.121403
lowerback 0.585855 1.88672 3.69903
upperback -1.65948 2.61173 2.02471
thorax -1.96275 1.26254 -0.0497248
lowerneck -10.0068 -0.0311642 -3.11294
upperneck 17.5699 0.401864 0.581662
head 7.01451 0.043279 0.741025
rclavicle -2.53202e-014 -1.59028e-014
rhumerus -34.0707 -27.5408 -73.462
rradius 16.7497
rwrist 18.7391
rhand -21.1195 -34.2607
rfingers 7.12502
rthumb 5.259 -64.1755
lclavicle -2.53202e-014 -1.59028e-014
lhumerus -27.8201 7.09391 87.4982
lradius 24.1831
lwrist 9.26084
lhand -21.9311 -12.4613
lfingers 7.12502
lthumb 4.47535 17.4714
rfemur -25.3923 4.54793 23.7984
rtibia 35.8181
rfoot -12.5352 11.054
rtoes 2.08634
lfemur -17.2933 7.59117 -20.067
ltibia 66.0441
lfoot 0.285213 7.08391
ltoes -1.91354
154
root 6.14448 15.9612 -20.812 4.72801 -1.61415 0.271053
lowerback 0.753862 1.92633 3.65037
upperback -1.62972 2.66859 1.85108
thorax -2.01869 1.28962 -0.207327
lowerneck -11.5403 -0.303417 -1.88666
upperneck 19.1244 0.138508 -0.83831
head 7.80432 -0.145549 0.0526808
rclavicle -1.70209e-014 -2.38542e-015
rhumerus -32.9906 -23.1295 -76.3824
rradius 18.0235
rwrist 12.4591
rhand -23.8274 -32.6368
rfingers 7.12502
rthumb 2.644 -62.6002
lclavicle -1.70209e-014 -2.38542e-015
lhumerus -28.9228 6.53586 87.4229
lradius 24.0418
lwrist 9.07989
lhand -22.0347 -11.6662
lfingers 7.12502
lthumb 4.37522 18.2686
rfemur -24.4716 4.21062 23.7285
rtibia 35.6317
rfoot -12.7357 11.3373
rtoes 6.96451
lfemur -18.3659 7.77152 -20.2246
ltibia 66.1523
lfoot -0.542049 6.48096
ltoes -1.92196
155
root 6.14352 15.971 -20.6682 4.51382 -1.53563 0.357679
lowerback 0.955842 1.96507 3.67437
upperback -1.65918 2.72999 1.71385
thorax -2.15294 1.31628 -0.370898
lowerneck -10.3004 -0.187938 -2.5705
upperneck 18.1481 0.17379 0.216018
head 7.25929 -0.0673595 0.514224
rclavicle 6.28657e-015 -2.78299e-014
rhumerus -31.9303 -19.9394 -78.5986
rradius 18.9242
rwrist 7.62442
rhand -26.3859 -30.3719
rfingers 7.12502
rthumb 0.173062 -60.3516
lclavicle 6.28657e-015 -2.78299e-014
lhumerus -30.1717 5.77388 87.4298
lradius 23.9561
lwrist 9.2654
lhand -21.8767 -11.5787
lfingers 7.12502
lthumb 4.52781 18.3529
rfemur -23.5793 3.91149 23.6836
rtibia 35.5018
rfoot -13.0051 11.8514
rtoes 11.3128
lfemur -19.3659 7.92643 -20.3856
ltibia 66.0889
lfoot -2.16393 5.62464
ltoes -3.12439
156
root 6.13358 15.9795 -20.5281 4.61002 -1.50846 0.0282322
lowerback 0.882381 2.05309 3.89143
upperback -1.75102 2.85289 1.79862
thorax -2.19672 1.37307 -0.406562
lowerneck -10.2195 -0.217909 -2.56377
upperneck 18.2215 0.145485 0.136128
head 7.26948 -0.0879665 0.484684
rclavicle -1.04859e-014 7.15625e-015
rhumerus -30.6643 -18.4197 -79.6508
rradius 19.6672
rwrist 7.01003
rhand -26.3013 -32.9433
rfingers 7.12502
rthumb 0.254751 -62.9229
lclavicle -1.04859e-014 7.15625e-015
lhumerus -31.2801 5.10751 87.5885
lradius 23.7048
lwrist 9.38386
lhand -21.5135 -12.0414
lfingers 7.12502
lthumb 4.87854 17.8824
rfemur -23.0193 3.82439 24.0909
rtibia 35.391
rfoot -13.3967 12.1848
rtoes 7.91941
lfemur -20.7392 8.08476 -20.0814
ltibia 65.9219
lfoot -3.96204 4.45365
ltoes -2.81208
157
root 6.11942 15.9888 -20.392 4.85009 -1.46725 -0.38931
lowerback 0.743087 2.13945 4.11926
upperback -1.91994 2.97355 1.90401
thorax -2.28328 1.42708 -0.42576
lowerneck -10.034 -0.247518 -2.40708
upperneck 18.2212 0.120095 -0.115151
head 7.23728 -0.111527 0.374639
rclavicle -4.28878e-014 -5.56597e-015
rhumerus -29.2421 -18.8994 -79.6721
rradius 19.7795
rwrist 10.4335
rhand -23.4758 -37.8929
rfingers 7.12502
rthumb 2.98365 -67.8518
lclavicle -4.28878e-014 -5.56597e-015
lhumerus -32.403 4.67322 87.6453
lradius 23.3093
lwrist 9.13807
lhand -21.4132 -12.1525
lfingers 7.12502
lthumb 4.97536 17.7691
rfemur -22.6341 3.78803 24.6321
rtibia 35.2562
rfoot -14.0334 12.0876
rtoes 2.23061
lfemur -22.2913 8.31149 -19.6858
ltibia 65.639
lfoot -5.87821 3.02287
ltoes -3.64922
